ffmpeg version 4.0.2 Copyright (c) 2000-2018 the FFmpeg developers
  built with Apple LLVM version 9.1.0 (clang-902.0.39.2)
  configuration: --prefix=/usr/local/Cellar/ffmpeg/4.0.2 --enable-shared --enable-pthreads --enable-version3 --enable-hardcoded-tables --enable-avresample --cc=clang --host-cflags= --host-ldflags= --enable-gpl --enable-libmp3lame --enable-libx264 --enable-libxvid --enable-opencl --enable-videotoolbox --disable-lzma
  libavutil      56. 14.100 / 56. 14.100
  libavcodec     58. 18.100 / 58. 18.100
  libavformat    58. 12.100 / 58. 12.100
  libavdevice    58.  3.100 / 58.  3.100
  libavfilter     7. 16.100 /  7. 16.100
  libavresample   4.  0.  0 /  4.  0.  0
  libswscale      5.  1.100 /  5.  1.100
  libswresample   3.  1.100 /  3.  1.100
  libpostproc    55.  1.100 / 55.  1.100
Input #0, image2pipe, from 'pipe:':
  Duration: N/A, bitrate: N/A
    Stream #0:0: Video: ppm, rgb24, 800x600, 20 fps, 20 tbr, 20 tbn, 20 tbc
Stream mapping:
  Stream #0:0 -> #0:0 (ppm (native) -> h264 (libx264))
[libx264 @ 0x7fa6fe804e00] using cpu capabilities: MMX2 SSE2Fast SSSE3 SSE4.2 AVX
[libx264 @ 0x7fa6fe804e00] profile High, level 3.1
[libx264 @ 0x7fa6fe804e00] 264 - core 152 r2854 e9a5903 - H.264/MPEG-4 AVC codec - Copyleft 2003-2017 - http://www.videolan.org/x264.html - options: cabac=1 ref=3 deblock=1:0:0 analyse=0x3:0x113 me=hex subme=7 psy=1 psy_rd=1.00:0.00 mixed_ref=1 me_range=16 chroma_me=1 trellis=1 8x8dct=1 cqm=0 deadzone=21,11 fast_pskip=1 chroma_qp_offset=-2 threads=6 lookahead_threads=1 sliced_threads=0 nr=0 decimate=1 interlaced=0 bluray_compat=0 constrained_intra=0 bframes=3 b_pyramid=2 b_adapt=1 b_bias=0 direct=1 weightb=1 open_gop=0 weightp=2 keyint=250 keyint_min=20 scenecut=40 intra_refresh=0 rc_lookahead=40 rc=abr mbtree=1 bitrate=400 ratetol=1.0 qcomp=0.60 qpmin=0 qpmax=69 qpstep=4 ip_ratio=1.40 aq=1:1.00
Output #0, mp4, to './mission_records/efa8c9a4-a98c-4dd6-9b01-11eed90f4e6c/video.mp4':
  Metadata:
    encoder         : Lavf58.12.100
    Stream #0:0: Video: h264 (libx264) (avc1 / 0x31637661), yuv420p, 800x600, q=-1--1, 400 kb/s, 20 fps, 10240 tbn, 20 tbc
    Metadata:
      encoder         : Lavc58.18.100 libx264
    Side data:
      cpb: bitrate max/min/avg: 0/0/400000 buffer size: 0 vbv_delay: -1
frame=    9 fps=0.0 q=0.0 size=       0kB time=00:00:00.00 bitrate=N/A speed=   0x    frame=   13 fps= 11 q=0.0 size=       0kB time=00:00:00.00 bitrate=N/A speed=   0x    frame=   18 fps= 10 q=0.0 size=       0kB time=00:00:00.00 bitrate=N/A speed=   0x    frame=   23 fps= 10 q=0.0 size=       0kB time=00:00:00.00 bitrate=N/A speed=   0x    frame=   28 fps=9.7 q=0.0 size=       0kB time=00:00:00.00 bitrate=N/A speed=   0x    frame=   33 fps=9.5 q=0.0 size=       0kB time=00:00:00.00 bitrate=N/A speed=   0x    frame=   38 fps=9.4 q=0.0 size=       0kB time=00:00:00.00 bitrate=N/A speed=   0x    frame=   43 fps=9.3 q=0.0 size=       0kB time=00:00:00.00 bitrate=N/A speed=   0x    frame=   47 fps=9.1 q=0.0 size=       0kB time=00:00:00.00 bitrate=N/A speed=   0x    frame=   52 fps=8.9 q=37.0 size=       0kB time=-00:00:00.04 bitrate=N/A speed=N/A    frame=   56 fps=8.9 q=38.0 size=       0kB time=00:00:00.15 bitrate=   2.6kbits/s speed=0.0238x    frame=   61 fps=8.8 q=35.0 size=       0kB time=00:00:00.40 bitrate=   1.0kbits/s speed=0.0577x    frame=   66 fps=8.8 q=38.0 size=       0kB time=00:00:00.65 bitrate=   0.6kbits/s speed=0.0862x    frame=   70 fps=8.5 q=38.0 size=       0kB time=00:00:00.85 bitrate=   0.5kbits/s speed=0.104x    frame=   73 fps=8.3 q=38.0 size=       0kB time=00:00:01.00 bitrate=   0.4kbits/s speed=0.113x    frame=   77 fps=8.2 q=35.0 size=       0kB time=00:00:01.20 bitrate=   0.3kbits/s speed=0.128x    frame=   81 fps=8.1 q=38.0 size=       0kB time=00:00:01.40 bitrate=   0.3kbits/s speed=0.14x    frame=   85 fps=8.0 q=38.0 size=       0kB time=00:00:01.60 bitrate=   0.2kbits/s speed=0.15x    frame=   90 fps=8.0 q=37.0 size=       0kB time=00:00:01.85 bitrate=   0.2kbits/s speed=0.164x    frame=   94 fps=8.0 q=37.0 size=       0kB time=00:00:02.05 bitrate=   0.2kbits/s speed=0.173x    frame=   98 fps=7.9 q=37.0 size=       0kB time=00:00:02.25 bitrate=   0.2kbits/s speed=0.181x    frame=  103 fps=7.9 q=38.0 size=       0kB time=00:00:02.50 bitrate=   0.2kbits/s speed=0.193x    frame=  107 fps=7.9 q=35.0 size=       0kB time=00:00:02.70 bitrate=   0.1kbits/s speed= 0.2x    frame=  112 fps=8.0 q=37.0 size=       0kB time=00:00:02.95 bitrate=   0.1kbits/s speed=0.21x    frame=  117 fps=8.0 q=37.0 size=       0kB time=00:00:03.20 bitrate=   0.1kbits/s speed=0.218x    frame=  121 fps=8.0 q=35.0 size=       0kB time=00:00:03.40 bitrate=   0.1kbits/s speed=0.224x    frame=  124 fps=7.9 q=38.0 size=       0kB time=00:00:03.55 bitrate=   0.1kbits/s speed=0.225x    frame=  128 fps=7.8 q=35.0 size=       0kB time=00:00:03.75 bitrate=   0.1kbits/s speed=0.229x    frame=  132 fps=7.8 q=38.0 size=       0kB time=00:00:03.95 bitrate=   0.1kbits/s speed=0.234x    frame=  136 fps=7.8 q=38.0 size=       0kB time=00:00:04.15 bitrate=   0.1kbits/s speed=0.239x    frame=  140 fps=7.8 q=38.0 size=       0kB time=00:00:04.35 bitrate=   0.1kbits/s speed=0.242x    frame=  143 fps=7.7 q=38.0 size=       0kB time=00:00:04.50 bitrate=   0.1kbits/s speed=0.242x    frame=  146 fps=7.6 q=38.0 size=       0kB time=00:00:04.65 bitrate=   0.1kbits/s speed=0.242x    frame=  150 fps=7.6 q=38.0 size=     256kB time=00:00:04.85 bitrate= 432.5kbits/s speed=0.246x    frame=  155 fps=7.6 q=38.0 size=     256kB time=00:00:05.10 bitrate= 411.3kbits/s speed=0.251x    frame=  160 fps=7.6 q=38.0 size=     256kB time=00:00:05.35 bitrate= 392.1kbits/s speed=0.255x    frame=  165 fps=7.6 q=35.0 size=     256kB time=00:00:05.60 bitrate= 374.6kbits/s speed=0.259x    frame=  169 fps=7.6 q=38.0 size=     256kB time=00:00:05.80 bitrate= 361.6kbits/s speed=0.261x    frame=  172 fps=7.6 q=38.0 size=     256kB time=00:00:05.95 bitrate= 352.5kbits/s speed=0.262x    frame=  176 fps=7.6 q=38.0 size=     256kB time=00:00:06.15 bitrate= 341.1kbits/s speed=0.264x    frame=  181 fps=7.6 q=38.0 size=     256kB time=00:00:06.40 bitrate= 327.7kbits/s speed=0.268x    frame=  186 fps=7.6 q=38.0 size=     256kB time=00:00:06.65 bitrate= 315.4kbits/s speed=0.271x    frame=  191 fps=7.6 q=35.0 size=     256kB time=00:00:06.90 bitrate= 304.0kbits/s speed=0.275x    frame=  195 fps=7.6 q=35.0 size=     256kB time=00:00:07.10 bitrate= 295.4kbits/s speed=0.277x    frame=  199 fps=7.6 q=38.0 size=     256kB time=00:00:07.30 bitrate= 287.3kbits/s speed=0.279x    frame=  202 fps=7.6 q=35.0 size=     256kB time=00:00:07.45 bitrate= 281.5kbits/s speed=0.279x    frame=  206 fps=7.6 q=38.0 size=     256kB time=00:00:07.65 bitrate= 274.2kbits/s speed=0.281x    frame=  210 fps=7.6 q=38.0 size=     256kB time=00:00:07.85 bitrate= 267.2kbits/s speed=0.283x    frame=  214 fps=7.6 q=38.0 size=     256kB time=00:00:08.05 bitrate= 260.6kbits/s speed=0.284x    frame=  215 fps=7.2 q=-1.0 Lsize=     563kB time=00:00:10.60 bitrate= 435.1kbits/s speed=0.354x    
video:561kB audio:0kB subtitle:0kB other streams:0kB global headers:0kB muxing overhead: 0.431126%
[libx264 @ 0x7fa6fe804e00] frame I:41    Avg QP:28.14  size:  6015
[libx264 @ 0x7fa6fe804e00] frame P:121   Avg QP:31.96  size:  2050
[libx264 @ 0x7fa6fe804e00] frame B:53    Avg QP:31.18  size:  1485
[libx264 @ 0x7fa6fe804e00] consecutive B-frames: 64.2%  6.5%  7.0% 22.3%
[libx264 @ 0x7fa6fe804e00] mb I  I16..4: 27.6% 67.9%  4.4%
[libx264 @ 0x7fa6fe804e00] mb P  I16..4:  5.8% 11.2%  0.2%  P16..4: 22.4%  2.9%  2.7%  0.0%  0.0%    skip:54.8%
[libx264 @ 0x7fa6fe804e00] mb B  I16..4:  1.5%  1.8%  0.0%  B16..8: 29.7%  1.8%  0.1%  direct: 0.8%  skip:64.3%  L0:63.1% L1:36.4% BI: 0.5%
[libx264 @ 0x7fa6fe804e00] final ratefactor: 32.68
[libx264 @ 0x7fa6fe804e00] 8x8 transform intra:66.7% inter:88.5%
[libx264 @ 0x7fa6fe804e00] coded y,uvDC,uvAC intra: 25.1% 6.4% 0.2% inter: 7.8% 0.1% 0.0%
[libx264 @ 0x7fa6fe804e00] i16 v,h,dc,p: 23% 55%  9% 13%
[libx264 @ 0x7fa6fe804e00] i8 v,h,dc,ddl,ddr,vr,hd,vl,hu:  8% 26% 48%  3%  3%  2%  6%  1%  5%
[libx264 @ 0x7fa6fe804e00] i4 v,h,dc,ddl,ddr,vr,hd,vl,hu: 13% 38% 19%  4%  6%  3% 10%  1%  6%
[libx264 @ 0x7fa6fe804e00] i8c dc,h,v,p: 74% 25%  1%  0%
[libx264 @ 0x7fa6fe804e00] Weighted P-Frames: Y:2.5% UV:0.0%
[libx264 @ 0x7fa6fe804e00] ref P L0: 54.1%  7.7% 23.6% 14.3%  0.4%
[libx264 @ 0x7fa6fe804e00] ref B L0: 83.9% 13.4%  2.7%
[libx264 @ 0x7fa6fe804e00] ref B L1: 95.4%  4.6%
[libx264 @ 0x7fa6fe804e00] kb/s:426.70
